<svg id="Calque_1" data-name="Calque 1" xmlns="http://www.w3.org/2000/svg" viewBox="0 0 629.85 768.83"><defs><style>.cls-1{fill:#cf6f4a;opacity:0.79;}.cls-2,.cls-3{fill:#fff;}.cls-2{stroke:#000;stroke-miterlimit:10;}</style></defs><title>Logo imprimerie ocre</title><polygon class="cls-1" points="609.71 0.5 571.49 0.5 563.83 716.27 604.72 716.27 609.71 0.5"/><polygon class="cls-2" points="52.08 4.74 93.81 4.75 93.81 192.06 154.83 192.06 154.83 230.22 52.04 230.22 52.08 4.74"/><polygon class="cls-2" points="110.33 86.69 132.81 91.98 171.49 11.92 140.33 6.18 110.33 86.69"/><polygon class="cls-1" points="370.43 3.44 329.54 3.44 321.96 711.41 362.85 711.84 370.43 3.44"/><polygon class="cls-2" points="258.02 230.22 296.9 230.22 318.33 100.67 364.03 230.22 380.89 230.22 427.54 99.19 447.22 230.22 485.95 230.22 452.81 3.44 425.96 3.44 375.88 149.93 325.16 3.44 292.52 3.44 258.02 230.22"/><polygon class="cls-2" points="250.42 469.08 294.48 469.08 315.47 337.56 366.49 469.08 378.99 469.08 435.94 340.81 450.81 469.08 497.4 469.08 464.36 250.94 434.85 250.94 376.12 390.35 321.01 250.66 290.77 251.07 250.42 469.08"/><path class="cls-2" d="M788.18,303.7c-3.34-91.25-130.94-66.94-130.94-66.94l1,226.78h38.89l.16-79.2S791.53,395,788.18,303.7Zm-90.85,46.91.22-80s50.48-3,51.11,37.92C749.4,356.1,697.33,350.61,697.33,350.61Z" transform="translate(-158.92 -233.32)"/><path class="cls-2" d="M294.72,610.72s45-15.92,42.95-65.54c-2.72-66.77-57.84-62.35-57.84-62.35l-69.15-.09L211,701.85h41.77V613.06l51.79,88.79h42.76Zm-42-29.83.28-68s45.77-8.83,46.35,34.48C300,592.94,252.73,580.89,252.73,580.89Z" transform="translate(-158.92 -233.32)"/><path class="cls-2" d="M422.76,854s45-15.92,43-65.55c-2.73-66.77-57.84-62.35-57.84-62.35L338.72,726,339,945.09h41.77V856.3l51.79,88.79h42.76Zm-42-29.84.28-68s45.76-8.83,46.35,34.48C428,836.18,380.78,824.13,380.78,824.13Z" transform="translate(-158.92 -233.32)"/><polygon class="cls-2" points="52.04 490.6 157.45 490.86 157.93 526.38 93.81 526.38 93.81 577.14 152.65 577.27 153.15 614.25 93.81 615.05 93.81 676.66 155.48 675.83 155.97 712.42 52.04 713.83 52.04 490.6"/><polygon class="cls-2" points="386.84 490.49 492.25 490.75 492.73 526.26 428.61 526.26 428.61 577.03 487.44 577.16 487.95 614.14 428.61 614.94 428.61 676.55 490.28 675.72 490.77 712.31 386.84 713.72 386.84 490.49"/><polygon class="cls-1" points="248.1 2.67 207.22 2.23 202.23 469.08 243.12 469.08 248.1 2.67"/><path class="cls-2" d="M253,512.91" transform="translate(-158.92 -233.32)"/><rect class="cls-1" x="498.66" y="249.42" width="39.84" height="463.69"/><path class="cls-3" d="M181.88,303.53v-1.12c3.28-.32,3.4-.56,3.36-4.83l0-16.32c-3.28,7.32-8.56,18.75-10,22.27h-1c-1.36-3.63-5.88-14.63-8.92-21.87-.68,14-.72,17.16-.72,17.91,0,2.24,1,2.56,3.76,2.84v1.12h-9.48v-1.12c2.32-.24,3.28-.72,3.6-2.88.24-1.75.28-3.19,1.32-17.79.16-2.08-.24-2.76-3.76-3.08v-1.12h7l8.84,20.28,9.48-20.28h7v1.12c-3.44.4-3.88.76-3.8,3.56l.16,15.36c.16,4.27.28,4.47,3.8,4.83v1.12Z" transform="translate(-158.92 -233.32)"/><path class="cls-3" d="M190.22,358.66c-2.52.16-3.44.8-3.52,2.64,0,.92-.12,2.6-.12,6.28v4.32c0,4.08-.48,7.19-2.8,9.63-1.88,2-4.6,2.56-7.36,2.56a10.86,10.86,0,0,1-6.56-1.84c-2.4-1.84-3.56-4.59-3.56-9.27v-10.2c0-3.6-.32-3.84-3.52-4.12v-1.12H173.3v1.12c-3.2.2-3.52.52-3.52,4.12v10c0,5.84,2.76,9,7.56,9,5.68,0,7.48-3.51,7.48-10.15v-4.08c0-3.68-.12-5.2-.2-6.28-.12-1.8-1-2.48-4-2.64v-1.12h9.6Z" transform="translate(-158.92 -233.32)"/><path class="cls-3" d="M181.72,443.62c-.68-2.64-1.8-5.24-5.56-5.24-3.12,0-4.2,2.28-4.2,4.36,0,2.76,1.76,4.16,5.08,5.88,4.8,2.48,6.88,4.32,6.88,8.12,0,4.19-3.64,7.39-8.8,7.39a16.69,16.69,0,0,1-6.12-1.32,54.33,54.33,0,0,1-1.08-6l1.24-.32c.8,2.68,2.56,6.15,6.72,6.15a4.39,4.39,0,0,0,4.64-4.59c0-3.08-1.64-4.32-5.16-6.24-4.2-2.28-6.56-4.2-6.56-7.92,0-3.56,3-6.92,8.24-6.92a25.61,25.61,0,0,1,5.28.76c.16,1.44.32,3,.64,5.64Z" transform="translate(-158.92 -233.32)"/><path class="cls-3" d="M186.66,537.18c-.24,1-1.32,5.15-1.72,6.35H165.5v-1.12c3.72-.28,4-.64,4-3.91V522.7c0-3.56-.44-3.76-3.44-4v-1.12H178.3c3.76,0,5.32,0,5.8-.08,0,1,.2,4,.36,6.12l-1.2.2a13.32,13.32,0,0,0-1.2-3c-.64-1.32-1.56-1.6-4-1.6h-3.8c-1.24,0-1.32.12-1.32,1.28v8.84h4.44c3,0,3.2-.6,3.68-3.32h1.24v8.24H181.1c-.52-2.88-.84-3.28-3.72-3.28H173v8c0,2.79.88,3,2.88,3.07h3.72c2.44,0,2.84-.36,3.72-1.4a16.83,16.83,0,0,0,2.16-3.67Z" transform="translate(-158.92 -233.32)"/><path class="cls-3" d="M186.66,617.18c-.24,1-1.32,5.16-1.72,6.35H165.5v-1.11c3.72-.28,4-.65,4-3.92V602.7c0-3.56-.44-3.76-3.44-4v-1.12H178.3c3.76,0,5.32,0,5.8-.08,0,1,.2,4,.36,6.12l-1.2.2a13.32,13.32,0,0,0-1.2-3c-.64-1.32-1.56-1.6-4-1.6h-3.8c-1.24,0-1.32.12-1.32,1.28v8.84h4.44c3,0,3.2-.6,3.68-3.32h1.24v8.24H181.1c-.52-2.88-.84-3.28-3.72-3.28H173v8c0,2.79.88,3,2.88,3.07h3.72c2.44,0,2.84-.35,3.72-1.39a17.15,17.15,0,0,0,2.16-3.68Z" transform="translate(-158.92 -233.32)"/><path class="cls-3" d="M173.86,776.18c5.64,0,9.2,1.12,11.68,3.48a11.57,11.57,0,0,1,3.4,8.56,13.14,13.14,0,0,1-5,10.79c-3,2.28-6.92,3.16-11.84,3.16h-9.36v-1.12c3.44-.32,3.6-.6,3.6-3.88V781.22c0-3.44-.48-3.6-3.6-3.92v-1.12Zm-4,20.67c0,3,1.28,3.84,4.28,3.84,7.2,0,10.88-4.92,10.88-11.91,0-4.36-1.48-7.68-4.64-9.6a12.66,12.66,0,0,0-6.84-1.6c-1.8,0-2.76.24-3.16.56s-.52.68-.52,2.24Z" transform="translate(-158.92 -233.32)"/><path class="cls-3" d="M186.66,875.81c-.24,1-1.32,5.16-1.72,6.36H165.5v-1.12c3.72-.28,4-.64,4-3.92V861.34c0-3.56-.44-3.76-3.44-4v-1.12H178.3c3.76,0,5.32,0,5.8-.08,0,1,.2,4,.36,6.12l-1.2.2a13.32,13.32,0,0,0-1.2-3c-.64-1.32-1.56-1.6-4-1.6h-3.8c-1.24,0-1.32.12-1.32,1.28v8.84h4.44c3,0,3.2-.6,3.68-3.32h1.24v8.23H181.1c-.52-2.88-.84-3.27-3.72-3.27H173v8c0,2.8.88,3,2.88,3.08h3.72c2.44,0,2.84-.36,3.72-1.4a17.15,17.15,0,0,0,2.16-3.68Z" transform="translate(-158.92 -233.32)"/><path class="cls-2" d="M453.71,994.42c-.24,1.24-1.44,5.39-1.84,6.63h-18.6v-1.12c3.64-.35,4-.55,4-3.95V980.1c0-3.4-.4-3.6-3.6-3.92v-1.12h10.72v1.12c-3.2.32-3.64.48-3.64,3.92v16.28c0,2.44.32,3,2.6,3l3.16,0c2,0,2.64-.24,3.56-1.24a13.54,13.54,0,0,0,2.44-4.12Z" transform="translate(-158.92 -233.32)"/><path class="cls-2" d="M480,976.18c-2.8.32-3.28.76-4.88,3.32-1.8,2.92-3.28,5.68-5.24,9.24a4.25,4.25,0,0,0-.6,2.36V996c0,3.32.36,3.56,4.08,3.91v1.12H461.87v-1.12c3.64-.47,3.92-.55,3.92-3.91v-5.16a4.1,4.1,0,0,0-.8-2.32c-1.4-2.6-2.76-5.12-4.92-8.88-1.56-2.72-2-3.2-4.68-3.48v-1.12h9.84v1.12c-2.88.4-2.72.92-2,2.28,1.68,3.08,3.56,6.68,5.24,9.68,1.44-2.68,3.72-7,4.84-9.24.92-2,.8-2.4-2.36-2.72v-1.12h9Z" transform="translate(-158.92 -233.32)"/><path class="cls-2" d="M498.27,974.5a12.86,12.86,0,0,1,13,13.2c0,8.6-5.84,13.95-13.2,13.95a13,13,0,0,1-13.28-13.35C484.75,981.14,489.83,974.5,498.27,974.5Zm-.8,1.48c-4.48,0-8.56,3.76-8.56,11.24s4.08,12.92,9.76,12.92c4.84,0,8.48-3.6,8.48-11.32C507.15,980.42,502.71,976,497.47,976Z" transform="translate(-158.92 -233.32)"/><path class="cls-2" d="M546.75,976.18c-2.56.28-3.4.68-3.52,2.52,0,1.28-.12,3-.12,6.68v16h-1.52L524.47,980.5v10c0,3.6.12,5.4.2,6.56.08,2,1.08,2.64,4,2.87v1.12h-9.72v-1.12c2.48-.19,3.44-.79,3.6-2.75.12-1.28.2-3.08.2-6.72v-10.2a3.49,3.49,0,0,0-.8-2.64c-.76-1-1.6-1.24-3.56-1.44v-1.12h6l17,20.12v-9.8c0-3.72-.08-5.44-.2-6.64-.12-1.8-1-2.36-4.24-2.56v-1.12h9.88Z" transform="translate(-158.92 -233.32)"/></svg>