<svg xmlns="http://www.w3.org/2000/svg" viewBox="0 0 612.99 273.03"><defs><style>.cls-1{fill:#fff;}.cls-2{fill:#1d1d1b;}</style></defs><g id="zone_de_protection" data-name="zone de protection"><rect class="cls-1" width="612.99" height="273.03"/><polygon class="cls-2" points="279.45 104.65 274.79 104.65 257.18 51.07 263.2 51.07 277.13 94.42 291.05 51.07 297.07 51.07 279.45 104.65 279.45 104.65"/><polygon class="cls-2" points="305.43 104.65 305.43 51.07 311.15 51.07 311.15 104.65 305.43 104.65 305.43 104.65"/><polygon class="cls-2" points="326.65 104.65 326.65 51.07 332.37 51.07 332.37 99.54 359.76 99.54 359.76 104.65 326.65 104.65 326.65 104.65"/><polygon class="cls-2" points="369.77 104.65 369.77 51.07 375.5 51.07 375.5 99.54 402.89 99.54 402.89 104.65 369.77 104.65 369.77 104.65"/><polygon class="cls-2" points="412.9 104.65 412.9 51.07 446.17 51.07 446.17 56.19 418.62 56.19 418.62 75.08 442.1 75.08 442.1 80.19 418.62 80.19 418.62 99.54 446.17 99.54 446.17 104.65 412.9 104.65 412.9 104.65"/><path class="cls-2" d="M557.72,170.77c-3.24,3.24-8,5-13.55,5H525.81V122.15h18.36c5.57,0,10.31,1.74,13.55,5,5.57,5.57,5.27,13.77,5.27,21.22s.3,16.86-5.27,22.43Zm-4-39.58c-2.78-2.86-6.4-3.92-10.54-3.92H531.53v43.35h11.66c4.14,0,7.76-1.05,10.54-3.91,3.69-3.84,3.53-11.82,3.53-18.37s.16-13.32-3.53-17.15Z" transform="translate(-49.01 -71.09)"/><polygon class="cls-2" points="527.45 104.65 527.45 51.07 560.71 51.07 560.71 56.19 533.17 56.19 533.17 75.08 556.65 75.08 556.65 80.19 533.17 80.19 533.17 99.54 560.71 99.54 560.71 104.65 527.45 104.65 527.45 104.65"/><polygon class="cls-2" points="261.2 217.69 261.2 122.93 279.71 122.93 279.71 201.18 322.69 201.18 322.69 217.69 261.2 217.69 261.2 217.69"/><polygon class="cls-2" points="363.86 179.17 363.86 218.04 345.49 218.04 345.49 179.17 317.01 123.27 337.11 123.27 354.81 161.47 372.25 123.27 392.34 123.27 363.86 179.17 363.86 179.17"/><path class="cls-2" d="M508.83,279.54c-6.65,6.65-14.77,10.38-25.55,10.38s-19-3.73-25.69-10.38c-9.58-9.58-9.31-21.43-9.31-37.8s-.27-28.21,9.31-37.8c6.65-6.65,14.91-10.38,25.69-10.38s18.9,3.73,25.55,10.38c9.59,9.59,9.45,21.43,9.45,37.8s.14,28.22-9.45,37.8Zm-13.7-64.42a15.4,15.4,0,0,0-11.85-5.05,15.66,15.66,0,0,0-12,5.05c-3.59,4-4.52,8.39-4.52,26.62s.93,22.63,4.52,26.62a15.66,15.66,0,0,0,12,5.06,15.41,15.41,0,0,0,11.85-5.06c3.58-4,4.65-8.39,4.65-26.62s-1.07-22.63-4.65-26.62Z" transform="translate(-49.01 -71.09)"/><polygon class="cls-2" points="544.21 218.04 506.67 159.87 506.67 218.04 488.17 218.04 488.17 123.27 504.68 123.27 542.21 181.3 542.21 123.27 560.71 123.27 560.71 218.04 544.21 218.04 544.21 218.04"/><path class="cls-2" d="M199.08,138.46a8.75,8.75,0,0,1-2.71-.68c-1.52-.64-2.4-1.61-2.05-2.36s.37-1.34,2.46-1.8V122.07H101v167h35.75a9.51,9.51,0,0,0,1-1.59,4.4,4.4,0,0,1,.95-2c1.36-1.52,3.44-1.25,5.06-2.16.62-.54,1.71-.89,1.55-1.86-.74-.9-1.55.28-2.49.35a16.86,16.86,0,0,0-5.21,3.07,6.62,6.62,0,0,1-6.17-1c-.56-.43-.88-1.17-1.61-1.3-1.47-.37-2.63.63-3.83,1.33-.21,0-.3-.25-.39-.38.1-2.48,2.29-4.35,4.45-5.35,1.55-.58,3.37-.76,4.45-2.33,1.74-2.14,4.4-2.9,6.89-3.35,6.13-1.11,10.53,3.09,15.71,4.8,1.85.49,3.85,1.5,5.8.76a4.54,4.54,0,0,0,1.45-.63c.44-.62,1.21-1.05,1.18-1.93.27-1.71-.79-3.13-1.89-4.35-.72-.54-1.33-1.26-2-1.85a60.18,60.18,0,0,0-7.49-4.6c-2.47-1.32-7.41-7.14-8.29-11.06s-1.67-15.56,8.47-18.63c8.31-2.51,15-.55,30.12,6.36,5.14,2.35,9,3.24,11.87,3.39h.15l.35,0v0c4.63.11,6.54-1.75,6.89-2.37.55-.95,1.8-5.15-6.89-8.19v0l-.42-.14-.08,0h0c-.52-.18-1.06-.35-1.66-.51-11.09-3.05-14.45-12.66-15.62-14.4s-4.09-6.11-8.78-4.65c-8.36,2.6-2.32,13.84-3,14.07-.21.32-.45,0-.45,0-10-15.33-21.7-10.88-24.31-8.88s-5.69,2.9-7.16,2.75c-.42,0,.12-.47.12-.47a2.91,2.91,0,0,0,1.05-4c-2.81-4.36-6.81-3.39-10.8.36s-9.81,1.29-9.81,1.29c-1.23,1.57-1.88,1.21-1.88,1.21-.56-.83-.46-4.61,2.19-7.2a6.1,6.1,0,0,0,.92-2.54c.44-2,1.25-1.85,2.89-3.15a1.24,1.24,0,0,0,.65-1.74c-.32-1-1.11-.09-1.11-.09a9.17,9.17,0,0,1-2.35,1.91c-2.84.79-4-2.68-6.78-2.42-1.3,0-2.4.78-3.6,1.13a3.16,3.16,0,0,1,.87-2.91,6.78,6.78,0,0,1,4.07-2.69c.52-.37.69-1,1.34-1.3,2.72-1.55,6.74-1.16,7.07-1.06s1.7.33,1.09-.65c-.32-.51-.73-.33-1.37-.27a27.67,27.67,0,0,1-5.41-.47c-1.29-.35-2.46-.7-3.23-.06-.52.44-1.49,1.14-1.49,1.14s-3.09-1.55,2.35-4.46c.42-.22.34-.4.34-.4,3.37-4.1,12.46-4,15.57-2.24,3.47,1.78,6,8,12.71,6.87,2.47-.54,3.71-2,4.74-4.05,3.77-7.33-.07-18.21-4.69-12.7-1.64,1.87-1.82,5.94-3,4.32-.47-.68-.81-5.49-1.06-6.7a20.13,20.13,0,0,1,1-7.15c1.34-3.48,3.26-7,2.91-11.08-.21-.75-.46-1.78-1.35-2.07a6.7,6.7,0,0,0-3.23-1.06c-2.73.11-5,1.88-8,1.06a5.76,5.76,0,0,1-2-.77c-.83-.63-1.51-1.57-2.63-1.7a14.09,14.09,0,0,0-4.59.91c-.25,0-.36-.34-.55-.51.31-1.6,2.22-2.06,3.33-3.09a15.11,15.11,0,0,1,5.46-2c1.68-1.69,4-1.58,6.21-1.74,1.08.14,2.09.48,3.13.56,0-.08.14-.14.21-.21A1.32,1.32,0,0,0,136,149c-1.33-.52-2.5.39-3.88.15a3.94,3.94,0,0,1-2.77-1.42c-.58-1-1-2.54-2.28-2.93a4.89,4.89,0,0,0-3.23.11c0-.24-.32-.49-.08-.72a7.18,7.18,0,0,1,3.46-1.51,22.51,22.51,0,0,0,5.18-1.08c3-.39,4.39,2.76,6.89,3.6.63,0,1.42,1.06,1.93.13a1.46,1.46,0,0,0-.08-1.39c-.62-.66-2.08-.25-2.81-.7a3,3,0,0,1-2.07-2.32c-.1-2.42-3-2.06-4.42-3.24a2.21,2.21,0,0,1-.42-.55c.15-.54,2.32-.4,2.72-.65,1.9-.29.82-2.24,3.79-3a20.27,20.27,0,0,1,5.8-1.25c3.81.22,15.35,9.43,17.88,23.9,2.31,13.32.49,26.51-.54,29.38-.15.43-.26.7-.34.87a.3.3,0,0,1,.29-.13,1.3,1.3,0,0,0,.9-.25A23.67,23.67,0,0,1,177,179.79c2.15-.18,17.59.33,15.11-4.52-1.46-2.86-9.46-.17-8.93-.36s5.11-3.23,2.64-3.23-8.45,3.42-8.45,3.42,2.65-8,4.66-11.23a27.73,27.73,0,0,1,2.5-3.46c.5-.45,2.69-1,3.24-.54.25.2,2.37,2,8.65,2.41,2.12.13,3.63-3,3.63-3l.25-.62,0,0,.36-.88a11.49,11.49,0,0,0-4.4-1.34v0a15.66,15.66,0,0,0-2-.14,28.83,28.83,0,0,0-7.87,1.39,31.38,31.38,0,0,1-8.56,1.49c-6.14,0-10-3.48-10-9.08,0-4,2.12-8.19,6.77-8.19a7.2,7.2,0,0,1,5.23,2.18,1.87,1.87,0,0,1,.11,2.5,1.55,1.55,0,0,1-2.32.12,4.08,4.08,0,0,0-3-1.27c-3.38,0-3.48,4.18-3.48,4.66,0,4.58,3.63,5.54,6.67,5.54a28.48,28.48,0,0,0,7.75-1.38,31.75,31.75,0,0,1,8.68-1.5,18.56,18.56,0,0,1,2,.11h0a15,15,0,0,1,5.81,1.66.39.39,0,0,1,.18.34c.79-.66,1.07-4.11-5.49-4.51h0c-.15,0-.32,0-.48,0h0l-.53,0a85.65,85.65,0,0,0-8.83.71c-1.46.1-3.91-8-4.61-9.65s.65-2.41,4.12-2.49a57,57,0,0,1,10.07.08c2.57.35,4.94,1.09,6.14,2.58,2.15,4,3.68,4.13,4.86,2.11C209.27,140.61,205.42,139,199.08,138.46Z" transform="translate(-49.01 -71.09)"/><path class="cls-2" d="M234.82,265.49c-2.69-.52-5.36-.11-8.13-.7-5.68-.57-10.85-2-14.23-6.76-2-2.88-2.4-3.24-3-6.52,0-.19-.28-.13-.39-.11-1.2.76-2.15,1.82-3.28,2.64-3.57,2.56-5.09,3.29-9,4l-.46.08h0c-4.78.88-6.62-.14-12.19-.14-5.32-.26-8.25,2.39-7.85,7.69.26,3.46.61,5.28,8.3,5.6s8.65,2.84,9.28,3.79c0,0,.32.47-.23.47a6.69,6.69,0,0,0-6.59,2.85s-.55.95.72.79c1-.12,4.92-1.53,8.67.35a9.26,9.26,0,0,1,2.82,2.18s.07.55-.47.47a4.92,4.92,0,0,0-2-.14v0l-.48.09h0a16.81,16.81,0,0,0-5.24,2.43c-5.47,3.48-4.1,3.57-5.45,3.34,0,0-4.33.77-4.93.07-.11-.13-.3-.23-.43-.11-.41.42-.88.88-1.23,1.22h39.86c-.06-.73-.21-1.33.19-1.88a13.55,13.55,0,0,1,5-3.95c.24-.18.67-.77.45-1a1.12,1.12,0,0,0-1-.21c-2.56,1-4.09,4-6.77,4.51a2.72,2.72,0,0,1-2.68-1c-.44-.65-.86-1.52-1.74-1.53a5.42,5.42,0,0,0-3.13.83,1.08,1.08,0,0,1-1,.19A.84.84,0,0,1,208,284a9.6,9.6,0,0,1,4-4.32,18.24,18.24,0,0,0,3.36-2.34,20.33,20.33,0,0,1,2.35-2.28c1.57-1,3.17-2,5.09-1.82,4.28-.29,8.33,1,12.09,2.4a9.8,9.8,0,0,0,2.14.23c2-.09,4.29-.86,5.1-2.87,1-1.74.06-3.48-.86-5C239.61,266.23,237.12,266.05,234.82,265.49ZM196.28,122.07v11.68a27.11,27.11,0,0,1,6.9-.58c12,0,15.65,11.64,28.14,11.11,0,0-.52,2.53-1.23,3.1a48,48,0,0,1,6-.19s-2.82,3.61-4.05,5.13.7,4.17.88,6.07,4.79,16.32-11.45,38c-3.7,4.93-2.82,7.59-2.82,7.59a8.09,8.09,0,0,1-4.23-7s-6,8.52,6,20.88a8.52,8.52,0,0,0,1.12,1l-1.43-1.43c3.38,3.47,9.8,3.42,14.9,8.06,5.93-1.85,12.57-5.76,12.57-12.09a16.32,16.32,0,0,0-2.35-8.42,20.31,20.31,0,0,1-2.84-10.24c0-9.29,4.57-16.81,9.76-23.44a45.13,45.13,0,0,1,6.17-7.44c4.75-5.67,8.89-11.08,8.89-16.53,0-4.41-4.14-9.32-10.09-9.32-.55,0-1.05,0-1.53.07a17.5,17.5,0,0,0-2.17.34l-.3.08a6.79,6.79,0,0,0-1,.39c-4.54,8.51-.87,17.27-.87,17.27a25.19,25.19,0,0,1-5.69-6.4,37.34,37.34,0,0,0,.17,9.69h.06c.25,3,.58,5.56.6,6.18.19,8.36-7.49,11.65-8.84,11.36-.18-.12.3-1.25.56-2.06,4.13-12.91-1.5-13.06-.53-21.95,1.51-14.52,10.43-20.43,18.85-20.26.24,0,.47,0,.72,0a15,15,0,0,1,15,14.63,17.52,17.52,0,0,1-.64,4.58,26.93,26.93,0,0,0,3-4.44c3.53-6,1.52-10.61,1.52-10.61,3.36,5.65,2.92,15.64,2,18a13.37,13.37,0,0,1-7.32,7.07c10.6.28,14.14-7.34,14.14-7.34C279.83,173,270,177,270,177c5.06,3.27,10.86-2.17,10.86-2.17-5.05,13.6-10.92,13.4-15.22,15.31s-12.67,2.49-13.82,17.75a18.63,18.63,0,0,1,.18,8.93c-1.69,6.53-7.82,10.74-13.86,13,.11.34.17.55.17.55l.83,1.73a19.36,19.36,0,0,1,.67,5.11,77,77,0,0,1-.31,10.69,4.63,4.63,0,0,0,3,3.78c3.59.48,11.13-9.84,12.35-8.56-.92,5,3.54,7.13,5.26,9.08,1.61,1.71,3.48,3.49,4.15,5.71a13.54,13.54,0,0,1,.25,6c-.68,3.92-2.78,8.44.16,11.9,1.26,1.58.73,1.85.73,1.85-3.79,2.12-9.71,2.63-9.71,2.63-.66-.26-1.33.79-2.38,2.16a27.19,27.19,0,0,1-6.78,6.58h45.6v-167Z" transform="translate(-49.01 -71.09)"/></g></svg>